<svg xmlns="http://www.w3.org/2000/svg" xmlns:xlink="http://www.w3.org/1999/xlink" xmlns:serif="http://www.serif.com/" viewBox="0 0 32 40" version="1.1" xml:space="preserve" style="" x="0px" y="0px" fill-rule="evenodd" clip-rule="evenodd" stroke-linejoin="round" stroke-miterlimit="2"><g transform="matrix(1,0,0,1,-144,-384)"><path d="M158.043,406C158.085,406.988 157.809,407.987 157.218,409L154,409C153.724,409 153.5,409.224 153.5,409.5C153.5,409.776 153.724,410 154,410L166,410C166.276,410 166.5,409.776 166.5,409.5C166.5,409.224 166.276,409 166,409L162.769,409C162.153,408.029 161.88,407.029 161.948,406L168.5,406C169.881,406 171,404.881 171,403.5L171,392.5C171,391.119 169.881,390 168.5,390L151.5,390C150.119,390 149,391.119 149,392.5C149,395.371 149,400.629 149,403.5C149,404.881 150.119,406 151.5,406L158.043,406ZM158.354,409C158.853,407.99 159.079,406.989 159.044,406L160.945,406C160.889,407.024 161.108,408.024 161.615,409C161.615,409 158.354,409 158.354,409ZM170,402.5L170,403.5C170,404.328 169.328,405 168.5,405C168.5,405 151.5,405 151.5,405C150.672,405 150,404.328 150,403.5L150,402.5L170,402.5ZM170,401.5L150,401.5L150,392.5C150,391.672 150.672,391 151.5,391C151.5,391 168.5,391 168.5,391C169.328,391 170,391.672 170,392.5L170,401.5Z"/></g><text x="0" y="47" fill="#000000" font-size="5px" font-weight="bold" font-family="'Helvetica Neue', Helvetica, Arial-Unicode, Arial, Sans-serif">Created by Winaldi</text><text x="0" y="52" fill="#000000" font-size="5px" font-weight="bold" font-family="'Helvetica Neue', Helvetica, Arial-Unicode, Arial, Sans-serif">from the Noun Project</text></svg>